<svg width="136" height="18" fill="none" xmlns="http://www.w3.org/2000/svg"><path d="M2.677 0h.142v17h-.142c-.762 0-1.382-.277-1.825-.812-.46-.555-.726-1.229-.797-2.041V2.873c0-.396.07-.773.212-1.11.142-.336.337-.653.567-.911.249-.258.514-.476.833-.614A2.24 2.24 0 012.677 0zm2.835 4.854V4.36c0-.357-.106-.674-.336-.931a1.042 1.042 0 00-.815-.377h-.479V0h1.772c.355 0 .691.08 1.01.218.32.139.603.357.833.614.23.258.425.575.55.912.141.356.194.713.194 1.11v1.98H5.512v.02zM5.654 17H3.882v-2.992h.479c.319 0 .602-.138.815-.396.212-.258.336-.555.336-.892v-.495h2.73v1.922c0 .396-.072.773-.196 1.11a2.718 2.718 0 01-.567.91c-.23.258-.496.456-.815.615a2.516 2.516 0 01-1.01.218zm5.263-17h8.168v3.051H16.41V17h-2.73V3.051h-2.764V0zM24.33 0h1.737v3.051h-.443c-.319 0-.603.12-.815.377a1.443 1.443 0 00-.337.931v2.635h1.595v3.052h-1.595v6.974h-2.729V2.873c0-.396.071-.773.195-1.11.142-.356.32-.653.55-.911a2.52 2.52 0 01.815-.614A2.429 2.429 0 0124.33 0zm2.87 0h2.73v17H27.2V0zm5.405 0h8.17v3.051h-2.677V17H35.37V3.051h-2.765V0zM43.45 0h2.675v17H43.45V0zm5.581 17h-1.736v-2.992h.46c.302 0 .55-.138.78-.396a1.31 1.31 0 00.355-.892v-1.387c0-.356-.107-.673-.355-.93-.23-.258-.496-.377-.78-.377h-.46V6.974h1.736c.355 0 .691.08.993.238.3.159.584.377.815.634.23.278.425.575.549.931.142.357.195.714.195 1.11v4.26c0 .396-.07.773-.195 1.11a2.99 2.99 0 01-.55.91c-.23.258-.513.456-.814.615a2.433 2.433 0 01-.993.218zM70.862 0v17h-2.764V0h2.764zm1.08 10.026h.461c.301 0 .567.119.798.376.23.258.354.555.354.931v1.387c0 .337-.124.634-.354.892-.23.258-.496.396-.78.396h-.46V17h1.736c.354 0 .69-.08 1.01-.218.319-.159.585-.357.833-.614.23-.258.425-.555.549-.912.142-.356.195-.713.195-1.11v-3.11c-.036-.614-.16-1.13-.39-1.545a3.218 3.218 0 00-.886-.991c.408-.238.727-.594.957-1.09.23-.475.337-1.05.337-1.724V2.873c0-.396-.071-.773-.195-1.11a2.995 2.995 0 00-.55-.911 2.436 2.436 0 00-.832-.614A2.618 2.618 0 0073.697 0H71.96v3.051h.461c.301 0 .567.12.797.377.23.257.355.555.355.931v1.347c0 .357-.124.674-.355.912-.248.237-.514.356-.797.356h-.46v3.052h-.018zM81.511 17a2.37 2.37 0 01-.992-.218 2.646 2.646 0 01-.815-.614 2.677 2.677 0 01-.55-.912 2.914 2.914 0 01-.194-1.11V2.874c0-.396.07-.773.194-1.11.142-.356.32-.653.55-.911a2.53 2.53 0 01.815-.614c.301-.159.638-.238.992-.238h1.737v3.051h-.443c-.32 0-.603.12-.816.377a1.404 1.404 0 00-.336.931v8.361c0 .337.106.634.337.892.23.258.496.396.815.396h.443V17H81.51zm2.977-17c.354 0 .691.08 1.01.218.319.158.585.357.815.614.23.258.425.575.567.912.142.356.213.713.213 1.11v11.273c-.071.812-.337 1.486-.78 2.04-.443.556-1.045.813-1.807.813h-.124V0h.106zm8.027 9.134l1.595-3.467v7.866L92.515 17h-2.729V0h2.729v9.134zM95.208 0h2.729v17h-2.729V0zm5.422 0h2.729v6.994h1.595v3.052h-1.595v6.974h-2.729V0zm5.44 0h2.729v17h-2.729V0zm7.974 17a2.37 2.37 0 01-.992-.218 2.643 2.643 0 01-.815-.614 2.67 2.67 0 01-.55-.912 2.942 2.942 0 01-.212-1.11V2.874c0-.396.071-.773.212-1.11.142-.356.319-.653.55-.911a2.52 2.52 0 011.807-.852h1.736v3.051h-.442a1.02 1.02 0 00-.816.377 1.406 1.406 0 00-.336.931v8.361c0 .337.106.634.336.892.231.258.497.396.816.396h.442V17h-1.736zm2.977-17c.354 0 .691.08 1.01.218.319.158.585.357.815.614.23.258.425.575.567.912.142.336.213.713.213 1.11v11.273c-.071.812-.337 1.486-.78 2.04-.443.556-1.063.813-1.807.813h-.124V0h.106zm5.298 0h3.048l5.156 17h-3.012l-2.428-8.044V17h-2.764V0zm13.626 0h-2.977l-3.349 11.016 1.489 4.914 2.108-6.974V17h2.729V0z" fill="#5F448C"/></svg>