<svg width="494" height="342" viewBox="0 0 494 342" fill="none" xmlns="http://www.w3.org/2000/svg">
<path d="M494 12.4484V0H482.156V5.3391H478.762V0H249.192V5.3391H244.808V0H15.2381V5.3391H11.8442V0H0V12.4484H5.07994V16.0155H0V168.696H5.07994V173.304H0V325.986H5.07994V329.553H0V342H11.8442V336.661H15.2381V342H244.808V336.661H249.192V342H478.764V336.661H482.157V342H494V329.552H488.92V325.984H494V173.304H488.92V168.696H494V16.0155H488.92V12.4484H494ZM483.842 1.77202H492.314V10.6764H488.92V5.3391H483.84V1.77202H483.842ZM483.842 7.11112H487.236V10.6782H483.842V7.11112ZM489.898 160.899V163.853H486.076V160.899H489.898ZM484.39 159.127V163.853H481.524V178.131L484.39 178.136V182.873H487.236V313.736H477.078V318.875H471.998V324.214H467.108V334.891H258.296V331.899H253.79L253.784 328.887H240.2V331.899H235.704V334.891H26.8918V324.214H22.0024V318.875H16.9225V313.736H6.76595V182.873H9.61024V178.147H12.4899V163.852H9.61024V159.127H6.76595V28.2637H16.9241V23.1249H22.0041V17.7858H26.8935V7.11112H235.704V10.1005H240.21L240.215 13.12H253.8V10.1005H258.296V7.11112H467.108V17.7875H471.998V23.1266H477.078V28.2655H487.236V159.127H484.39ZM486.076 181.101V178.139L489.898 178.147V181.101H486.076ZM477.078 329.552H473.684V320.647H482.156V324.214H477.076V329.552H477.078ZM477.078 331.324V334.891H468.794V325.986H471.998V331.325H477.078V331.324ZM478.764 318.875V315.508H487.236V324.214H483.842V318.875H478.764ZM256.61 333.672V337.689H253.8L253.793 333.672H256.61ZM240.2 333.672V337.689H237.39V333.672H240.2ZM11.8442 325.986H15.2381V329.553H11.8442V325.986ZM11.8442 324.214V320.647H20.3164V329.552H16.9225V324.212H11.8442V324.214ZM4.10205 181.101V178.147H7.92423V181.101H4.10205ZM10.1582 324.214H6.76595V315.508H15.2381V318.875H10.1582V324.214ZM22.0024 331.324V325.984H25.2058V334.889H16.9225V331.322H22.0024V331.324ZM7.92423 160.899V163.853H4.10205V160.899H7.92423ZM16.9241 12.4484H20.3181V21.3528H11.8442V17.7858H16.9241V12.4484ZM16.9241 10.6764V7.11112H25.2075V16.0155H22.0041V10.6764H16.9241ZM15.2381 23.1249V26.4917H6.76595V17.7858H10.1599V23.1249H15.2381ZM237.39 8.3285V4.31133H240.2L240.207 8.3285H237.39ZM253.8 8.3285V4.31133H256.61V8.3285H253.8ZM468.794 16.0155V7.11112H477.078V10.6782H471.998V16.0173H468.794V16.0155ZM478.764 26.4917V23.1249H483.843V17.7858H487.237V26.4917H478.764ZM482.156 21.3528H473.684V12.4484H477.078V17.7875H482.157V21.3528H482.156ZM478.764 16.0155V12.4484H482.157V16.0155H478.764ZM482.156 7.11112V10.6782H478.762V7.11112H482.156ZM250.878 1.77202H477.078V5.3391H258.296V2.53931H252.114V8.3285H250.878V1.77202ZM249.192 7.11112V10.1005H252.114V11.348H241.898L241.896 10.1005H244.808V7.11112H249.192ZM16.9241 1.77202H243.122V8.3285H241.893L241.885 2.53931H235.704V5.33733H16.9241V1.77202ZM11.8442 7.11112H15.2381V10.6782H11.8442V7.11112ZM15.2381 12.4484V16.0155H11.8442V12.4484H15.2381ZM10.1582 10.6764H6.76595V7.11112H10.1599V10.6764H10.1582ZM1.68601 10.6764V1.77202H10.1582V5.3391H5.07994V10.6782H1.68601V10.6764ZM6.76595 12.4484H10.1599V16.0155H6.76595V12.4484ZM1.68601 17.7875H5.07994V159.127H2.41605V165.625H7.92423V166.924H1.68601V17.7875ZM6.76595 168.696H9.61024V165.625H10.8039V176.376H9.61024V173.304H6.76595V168.696ZM1.68601 324.214V175.076H7.92423V176.375H2.41605V182.873H5.07825V324.214H1.68601ZM10.1582 340.228H1.68601V331.324H5.07994V336.663H10.1599V340.228H10.1582ZM10.1582 334.891H6.76595V331.324H10.1599V334.891H10.1582ZM6.76595 329.552V325.984H10.1599V329.552H6.76595ZM11.8442 334.891V331.324H15.2381V334.891H11.8442ZM243.122 340.228H16.9241V336.661H235.704V339.459H241.886V333.672H243.122V340.228ZM244.808 334.891V331.899H241.886V330.659H252.102L252.104 331.899H249.192V334.891H244.808ZM477.078 340.228H250.878V333.672H252.107L252.115 339.461H258.296V336.663H477.078V340.228ZM482.156 334.891H478.762V331.324H482.156V334.891ZM478.764 329.552V325.984H482.157V329.552H478.764ZM483.842 331.324H487.236V334.891H483.842V331.324ZM492.314 331.324V340.228H483.842V336.661H488.922V331.322H492.314V331.324ZM487.236 329.552H483.842V325.984H487.236V329.552ZM492.314 324.214H488.92V182.873H491.582V176.376L486.074 176.367V175.076H492.312V324.214H492.314ZM487.236 173.304H484.39V176.364L483.21 176.362V165.625H484.39V168.696H487.236V173.304ZM492.314 17.7875V166.924H486.076V165.625H491.584V159.127H488.922V17.7875H492.314ZM483.842 16.0155V12.4484H487.236V16.0155H483.842Z" fill="#4B3178"/>
</svg>
