<svg width="350" height="342" xmlns="http://www.w3.org/2000/svg">
 <g>
  <title>Layer 1</title>
  <path stroke="null" d="m348,16.12081l0,-12.12081l-8.29559,0l0,5.1986l-2.37717,0l0,-5.1986l-160.79194,0l0,5.1986l-3.07057,0l0,-5.1986l-160.79187,0l0,5.1986l-2.3771,0l0,-5.1986l-8.29573,0l0,12.12081l3.55801,0l0,3.47323l-3.55801,0l0,148.66258l3.55801,0l0,4.48674l-3.55801,0l0,148.66404l3.55801,0l0,3.47313l-3.55801,0l0,12.11945l8.29573,0l0,-5.1985l2.3771,0l0,5.1985l160.79187,0l0,-5.1985l3.07057,0l0,5.1985l160.79334,0l0,-5.1985l2.37647,0l0,5.1985l8.29489,0l0,-12.12042l-3.55806,0l0,-3.47411l3.55806,0l0,-148.6621l-3.55806,0l0,-4.48674l3.55806,0l0,-148.66258l-3.55806,0l0,-3.47323l3.55806,0zm-7.11471,-10.39542l5.93383,0l0,8.67005l-2.37717,0l0,-5.19684l-3.55806,0l0,-3.47321l0.0014,0zm0,5.1986l2.37717,0l0,3.47321l-2.37717,0l0,-3.47321zm4.24165,149.74082l0,2.87626l-2.67695,0l0,-2.87626l2.67695,0zm-3.85783,-1.72537l0,4.60163l-2.00736,0l0,13.90226l2.00736,0.00487l0,4.61234l1.99335,0l0,127.41923l-7.11471,0l0,5.00376l-3.55806,0l0,5.1985l-3.42498,0l0,10.39603l-146.25293,0l0,-2.91326l-3.15602,0l-0.0042,-2.93274l-9.5143,0l0,2.93274l-3.14902,0l0,2.91326l-146.25307,0l0,-10.39603l-3.42456,0l0,-5.1985l-3.55799,0l0,-5.00376l-7.1137,0l0,-127.41923l1.99215,0l0,-4.60163l2.01693,0l0,-13.91882l-2.01693,0l0,-4.60066l-1.99215,0l0,-127.41952l7.11482,0l0,-5.00357l3.55806,0l0,-5.1986l3.42456,0l0,-10.39377l146.25188,0l0,2.91071l3.15602,0l0.0035,2.94004l9.515,0l0,-2.94004l3.14902,0l0,-2.91071l146.25293,0l0,10.39542l3.42498,0l0,5.1986l3.55806,0l0,5.00367l7.11471,0l0,127.41777l-1.99335,0zm1.18088,21.39574l0,-2.88405l2.67695,0.00779l0,2.87626l-2.67695,0zm-6.30224,144.54439l-2.37717,0l0,-8.67066l5.93383,0l0,3.47313l-3.55806,0l0,5.19753l0.0014,0zm0,1.72537l0,3.47313l-5.80215,0l0,-8.67066l2.2441,0l0,5.1985l3.55806,0l0,-0.00097zm1.18088,-12.12139l0,-3.27839l5.93383,0l0,8.47689l-2.37717,0l0,-5.1985l-3.55666,0zm-155.59773,14.4076l0,3.91129l-1.96814,0l-0.0049,-3.91129l1.97304,0zm-11.49364,0l0,3.91129l-1.96814,0l0,-3.91129l1.96814,0zm-159.94151,-7.48374l2.3771,0l0,3.47313l-2.3771,0l0,-3.47313zm0,-1.72537l0,-3.47313l5.93397,0l0,8.67066l-2.3771,0l0,-5.19947l-3.55687,0l0,0.00195zm-5.42264,-139.34686l0,-2.87626l2.67707,0l0,2.87626l-2.67707,0zm4.24176,139.34686l-2.37595,0l0,-8.47689l5.93393,0l0,3.27839l-3.55799,0l0,5.1985zm8.29573,6.92289l0,-5.19947l2.24368,0l0,8.67066l-5.80166,0l0,-3.47313l3.55799,0l0,0.00195zm-9.86042,-165.94012l0,2.87626l-2.67707,0l0,-2.87626l2.67707,0zm6.30355,-144.544l2.37717,0l0,8.67007l-5.93516,0l0,-3.47313l3.55799,0l0,-5.19694zm0,-1.72537l0,-3.47146l5.80173,0l0,8.67005l-2.24368,0l0,-5.1986l-3.55806,0zm-1.18088,12.12091l0,3.2782l-5.93393,0l0,-8.4768l2.37714,0l0,5.1986l3.5568,0zm155.59626,-14.40702l0,-3.91145l1.96814,0l0.0049,3.91145l-1.97304,0zm11.49364,0l0,-3.91145l1.96814,0l0,3.91145l-1.96814,0zm150.58284,7.48471l0,-8.67005l5.80215,0l0,3.47321l-3.55806,0l0,5.1986l-2.2441,0l0,-0.00175zm6.98304,10.20051l0,-3.2782l3.55736,0l0,-5.1986l2.37717,0l0,8.4768l-5.93453,0zm2.37577,-5.00367l-5.93383,0l0,-8.67007l2.37717,0l0,5.1986l3.55736,0l0,3.47148l-0.0007,0zm-2.37577,-5.19684l0,-3.47323l2.37647,0l0,3.47323l-2.37647,0zm2.37577,-8.67005l0,3.47321l-2.37717,0l0,-3.47321l2.37717,0zm-161.98823,-5.1986l158.43157,0l0,3.47321l-153.23597,0l0,-2.72611l-4.3299,0l0,5.63684l-0.8657,0l0,-6.38394zm-1.18088,5.1986l0,2.91071l2.04658,0l0,1.21467l-7.15534,0l-0.0014,-1.21467l2.03958,0l0,-2.91071l3.07057,0zm-162.68156,-5.1986l158.4301,0l0,6.38394l-0.8608,0l-0.0056,-5.63684l-4.3292,0l0,2.72439l-153.2345,0l0,-3.47149zm-3.55799,5.1986l2.3771,0l0,3.47321l-2.3771,0l0,-3.47321zm2.3771,5.19682l0,3.47323l-2.3771,0l0,-3.47323l2.3771,0zm-3.55799,-1.72537l-2.37595,0l0,-3.47146l2.37714,0l0,3.47146l-0.00119,0zm-5.93396,0l0,-8.67005l5.93396,0l0,3.47321l-3.55684,0l0,5.1986l-2.37712,0l0,-0.00175zm3.55801,1.72537l2.37714,0l0,3.47323l-2.37714,0l0,-3.47323zm-3.55801,5.1986l2.37712,0l0,137.62003l-1.8658,0l0,6.327l3.85796,0l0,1.26482l-4.36928,0l0,-145.21185zm3.55801,146.93722l1.99215,0l0,-2.99018l0.83605,0l0,10.46808l-0.83605,0l0,-2.99116l-1.99215,0l0,-4.48674zm-3.55801,151.42541l0,-145.21331l4.36928,0l0,1.26482l-3.85796,0l0,6.327l1.86462,0l0,137.62149l-2.37594,0zm5.93396,15.59258l-5.93396,0l0,-8.66968l2.37712,0l0,5.1985l3.55803,0l0,3.47118l-0.00119,0zm0,-5.19655l-2.37595,0l0,-3.47313l2.37714,0l0,3.47313l-0.00119,0zm-2.37595,-5.1985l0,-3.47411l2.37714,0l0,3.47411l-2.37714,0zm3.55683,5.1985l0,-3.47313l2.3771,0l0,3.47313l-2.3771,0zm161.98809,5.19655l-158.4301,0l0,-3.47313l153.2345,0l0,2.72437l4.3299,0l0,-5.63471l0.8657,0l0,6.38347zm1.18088,-5.19655l0,-2.91326l-2.04658,0l0,-1.20737l7.15534,0l0.0014,1.20737l-2.03958,0l0,2.91326l-3.07057,0zm162.68303,5.19655l-158.43157,0l0,-6.38347l0.8608,0l0.0056,5.63666l4.3292,0l0,-2.72437l153.23597,0l0,3.47118zm3.55666,-5.19655l-2.37717,0l0,-3.47313l2.37717,0l0,3.47313zm-2.37577,-5.1985l0,-3.47411l2.37647,0l0,3.47411l-2.37647,0zm3.55666,1.72537l2.37717,0l0,3.47313l-2.37717,0l0,-3.47313zm5.93383,0l0,8.66968l-5.93383,0l0,-3.47313l3.55806,0l0,-5.1985l2.37577,0l0,0.00195zm-3.55666,-1.72537l-2.37717,0l0,-3.47411l2.37717,0l0,3.47411zm3.55666,-5.19753l-2.37717,0l0,-137.62149l1.86448,0l0,-6.32603l-3.85783,-0.00876l0,-1.25703l4.36913,0l0,145.21331l0.0014,0zm-3.55666,-146.93868l-1.99335,0l0,2.97947l-0.82648,-0.00195l0,-10.45445l0.82648,0l0,2.99018l1.99335,0l0,4.48674zm3.55666,-151.42395l0,145.21185l-4.36913,0l0,-1.26482l3.85783,0l0,-6.327l-1.86448,0l0,-137.62003l2.37577,0zm-5.93383,-1.72537l0,-3.47323l2.37717,0l0,3.47323l-2.37717,0z" fill="#4B3178" id="svg_1"/>
 </g>

</svg>